<?xml version="1.0" encoding="utf-8"?>
<!-- Generator: Adobe Illustrator 16.0.0, SVG Export Plug-In . SVG Version: 6.00 Build 0)  -->
<!DOCTYPE svg PUBLIC "-//W3C//DTD SVG 1.1//EN" "http://www.w3.org/Graphics/SVG/1.1/DTD/svg11.dtd">
<svg version="1.1" id="Capa_1" xmlns="http://www.w3.org/2000/svg" xmlns:xlink="http://www.w3.org/1999/xlink" x="0px" y="0px"
	 width="190px" height="50px" viewBox="0 0 190 50" enable-background="new 0 0 190 50" xml:space="preserve">
<g>
	<g>
		<g>
			<path fill="#59595B" d="M18.494,16.013c-8.021,0-14.448,5.896-14.448,14.022c0,8.182,6.427,14.129,14.448,14.129
				s14.5-5.947,14.5-14.129C32.995,21.909,26.515,16.013,18.494,16.013z M18.494,39.705c-5.046,0-9.189-4.037-9.189-9.67
				c0-5.577,4.143-9.559,9.189-9.559c5.1,0,9.243,3.982,9.243,9.559C27.737,35.668,23.594,39.705,18.494,39.705z"/>
		</g>
	</g>
	<path fill="#59595B" d="M65.292,16.068c-6.321,0-8.658,4.408-8.658,4.408h-0.106c0,0,0.106-0.956,0.106-2.231V9.481
		c0-2.391-1.009-3.399-3.399-3.399h-5.099v4.409h2.177c0.743,0,1.168,0.371,1.168,1.169v5.377c-0.515-0.005-1.888-0.014-2.444-0.014
		c-4.144,0-7.224,3.081-8.499,7.013h-0.105c0,0,0.105-0.798,0.105-1.86v-1.699c0-2.177-1.115-3.134-3.452-3.134h-4.888v4.409h2.179
		c0.744,0,1.168,0.371,1.168,1.167v21.3h5.152V33.225c0-1.646,0.16-3.293,0.638-4.834c1.222-3.983,4.249-6.32,7.542-6.32
		c0.726,0,2.188,0.114,2.604,0.147v21.364h4.94v-1.859c0-1.168-0.106-2.018-0.106-2.018h0.106c0,0,2.443,4.514,8.446,4.514
		c7.064,0,12.217-5.521,12.217-14.074C77.084,21.804,72.515,16.068,65.292,16.068z M64.124,39.811c-5.099,0-7.596-4.779-7.596-9.561
		c0-6.851,3.718-9.667,7.702-9.667c4.514,0,7.649,3.771,7.649,9.614C71.879,36.305,68.372,39.811,64.124,39.811z"/>
	<path fill="#59595B" d="M103.041,28.656c0-6.958-4.037-12.588-11.58-12.588c-7.648,0-13.491,5.525-13.491,14.077
		c0,7.969,5.79,14.074,14.288,14.074c6.374,0,10.357-3.93,10.357-3.93l-2.23-3.666c0,0-3.239,3.137-7.861,3.137
		c-4.781,0-8.923-3.242-9.242-8.979h19.6C102.881,30.781,103.041,29.348,103.041,28.656z M83.493,27.01
		c0.798-4.461,3.984-6.852,7.915-6.852c3.347,0,6.161,2.391,6.321,6.852H83.493z"/>
	<g>
		<g>
			<path fill="#5DA39A" d="M111.063,38.588V10.063c0-2.39-1.01-3.397-3.4-3.397h-5.099v4.407h2.178c0.743,0,1.169,0.371,1.169,1.17
				v28.523c0,2.391,1.008,3.398,3.398,3.398h5.101v-4.408h-2.179C111.486,39.756,111.063,39.383,111.063,38.588z"/>
			<path fill="#5DA39A" d="M115.471,21.697c0.743,0,1.168,0.372,1.168,1.17v17.899c0,2.391,1.01,3.398,3.4,3.398h5.045v-4.408
				h-2.177c-0.743,0-1.169-0.373-1.169-1.168V20.687c0-2.39-1.01-3.4-3.398-3.4h-2.869V21.697z"/>
			<path fill="#5DA39A" d="M175.229,38.695l-3.982-7.277c-0.905-1.701-1.807-2.02-1.807-2.02v-0.105c0,0,0.797-0.371,2.018-2.018
				l7.277-9.989h-5.896l-6.215,8.711c-0.69,0.904-1.859,1.17-2.814,1.17h-2.391V9.745c0-2.389-1.008-3.079-3.398-3.079h-5.1v4.407
				h2.178c0.743,0,1.168,0.371,1.168,1.17v27.513H152.6c-0.742,0-1.168-0.373-1.168-1.168V26.955c0-6.852-2.869-10.303-9.242-10.303
				c-5.844,0-9.029,3.824-10.092,6.16h-0.107c0,0,0.107-0.689,0.107-1.54v-1.01c0-1.965-1.117-2.976-3.4-2.976h-4.939v4.41h2.177
				c0.743,0,1.169,0.372,1.169,1.17v21.297h5.152V31.578c0-1.328,0.106-2.553,0.478-3.613c1.063-3.878,4.356-6.585,8.5-6.585
				c4.302,0,5.045,2.974,5.045,6.746v12.641c0,2.391,1.009,3.398,3.401,3.398h11.738V31.523h2.018c0.852,0,2.072,0.107,2.656,1.115
				l4.887,9.029c1.168,2.07,1.965,2.496,4.463,2.496h3.718v-4.408h-1.646C176.184,39.756,175.652,39.545,175.229,38.695z"/>
		</g>
	</g>
</g>
</svg>
